<svg height="469pt" viewBox="-21 0 469 469.33333" width="469pt" xmlns="http://www.w3.org/2000/svg"><path d="m85.5 64h213.332031v234.667969h-213.332031zm0 0" fill="#3599d7"/><path d="m298.832031 64v234.667969h-213.332031v-10.5625c78.71875-37.332031 170.878906-105.277344 205.332031-224.105469zm0 0" fill="#2f8dc7"/><path d="m117.5 298.667969v-21.335938l52.265625-52.265625c8.039063-7.988281 12.558594-18.855468 12.558594-30.1875 0-11.332031-4.519531-22.195312-12.558594-30.1875l-7.464844-7.464844c-4.1875-4.171874-10.960937-4.171874-15.148437 0l-45.4375 45.441407h-16.214844v-96l-51.5 51.496093c-8.003906 8.003907-12.5 18.859376-12.5 30.175782v216.992187h149.332031v-21.332031c23.566407 0 42.667969-19.101562 42.667969-42.667969v-42.664062zm0 0" fill="#ffdaaa"/><path d="m.167969 405.332031v64h202.664062v-64zm0 0" fill="#3599d7"/><path d="m256.167969 0h-128c-23.566407 0-42.667969 19.101562-42.667969 42.667969v21.332031h213.332031v-21.332031c0-23.566407-19.101562-42.667969-42.664062-42.667969zm0 0" fill="#acabb1"/><path d="m94.984375 346.730469c8.070313 10.070312 20.277344 15.933593 33.183594 15.9375h128c23.5625 0 42.664062-19.105469 42.664062-42.667969v-21.332031h-181.332031v10.664062c-.035156 15.664063-8.691406 30.039063-22.515625 37.398438zm0 0" fill="#acabb1"/><path d="m.167969 469.332031h202.664062v-64h-202.664062zm0 0" fill="#3599d7"/><path d="m426.832031 181.332031c0 47.128907-38.203125 85.335938-85.332031 85.335938s-85.332031-38.207031-85.332031-85.335938c0-47.128906 38.203125-85.332031 85.332031-85.332031s85.332031 38.203125 85.332031 85.332031zm0 0" fill="#ffde55"/><path d="m384.167969 160v-10.667969c0-11.78125-9.550781-21.332031-21.335938-21.332031h-10.664062v-10.667969h-21.335938v10.667969h-10.664062c-11.785157 0-21.335938 9.550781-21.335938 21.332031v21.335938c0 11.78125 9.550781 21.332031 21.335938 21.332031h42.664062v21.332031h-42.664062v-10.664062h-21.335938v10.664062c0 11.785157 9.550781 21.335938 21.335938 21.335938h10.664062v10.664062h21.335938v-10.664062h10.664062c11.785157 0 21.335938-9.550781 21.335938-21.335938v-21.332031c0-11.78125-9.550781-21.332031-21.335938-21.332031h-42.664062v-21.335938h42.664062v10.667969zm0 0" fill="#ff7956"/><path d="m128.167969 128h-21.335938v-32c0-5.890625 4.777344-10.667969 10.667969-10.667969h32v21.335938h-21.332031zm0 0" fill="#f1f2f2"/></svg>