<svg height="512" viewBox="0 0 64 64" width="512" xmlns="http://www.w3.org/2000/svg"><g id="Book-Education-Cloud-Storage-Data"><path d="m27 30h2v8h-2z" fill="#ff9811"/><path d="m35 30h2v8h-2z" fill="#ff9811"/><path d="m45.9 14.05a8 8 0 0 1 -.9 15.95h-26a8 8 0 0 1 0-16h.05c-.03-.33-.05-.66-.05-1a10 10 0 0 1 18.41-5.4 5.905 5.905 0 0 1 2.59-.6 5.962 5.962 0 0 1 5.9 7.05z" fill="#e6e7e8"/><path d="m50 41v20h-4v-4-16z" fill="#8b5e3c"/><path d="m46 57v4h-14a3.995 3.995 0 0 1 4-4z" fill="#acabb1"/><path d="m46 41v16h-10a3.995 3.995 0 0 0 -4 4v-20a4 4 0 0 1 4-4h10z" fill="#f1f2f2"/><path d="m32 41v20a3.995 3.995 0 0 0 -4-4h-10v-20h10a4 4 0 0 1 4 4z" fill="#e6e7e8"/><path d="m32 61h-14v-4h10a3.995 3.995 0 0 1 4 4z" fill="#acabb1"/><path d="m18 57v4h-4v-20h4z" fill="#8b5e3c"/><path d="m21 40h8v2h-8z" fill="#bcbec0"/><path d="m21 44h8v2h-8z" fill="#bcbec0"/><path d="m21 48h8v2h-8z" fill="#bcbec0"/><path d="m21 52h8v2h-8z" fill="#bcbec0"/><path d="m35 40h8v2h-8z" fill="#bcbec0"/><path d="m35 44h8v2h-8z" fill="#bcbec0"/><path d="m35 48h8v2h-8z" fill="#bcbec0"/><path d="m35 52h8v2h-8z" fill="#bcbec0"/><path d="m45 27v-2a3 3 0 0 0 3-3h2a5.006 5.006 0 0 1 -5 5z" fill="#fff"/><path d="m41 25h2v2h-2z" fill="#fff"/><path d="m24 13h-2a7.008 7.008 0 0 1 7-7v2a5.006 5.006 0 0 0 -5 5z" fill="#fff"/><g fill="#ffa733"><path d="m55 46h2v4h-2z"/><path d="m55 42h2v2h-2z"/><path d="m55 38h2v2h-2z"/><path d="m58 19h2v4h-2z"/><path d="m58 15h2v2h-2z"/><path d="m58 11h2v2h-2z"/><path d="m3.999 18.995h2v4h-2z"/><path d="m4 14.995h2v2h-2z"/><path d="m4.001 10.995h2v2h-2z"/></g><path d="m59 54h-2v-2h-2v2h-2v2h2v2h2v-2h2z" fill="#ff9811"/><path d="m53 8h2v-2h2v-2h-2v-2h-2v2h-2v2h2z" fill="#ff9811"/><path d="m11 2h-2v2h-2v2h2v2h2v-2h2v-2h-2z" fill="#ff9811"/><path d="m7 52h-2v2h-2v2h2v2h2v-2h2v-2h-2z" fill="#ff9811"/><path d="m5 46h2v4h-2z" fill="#ffa733"/><path d="m5 42h2v2h-2z" fill="#ffa733"/><path d="m5 38h2v2h-2z" fill="#ffa733"/><path d="m23 37h-2v-2h-1a2 2 0 0 1 -2-2v-3h2v3h1a2 2 0 0 1 2 2z" fill="#ff9811"/><path d="m43 37h-2v-2a2 2 0 0 1 2-2h1v-3h2v3a2 2 0 0 1 -2 2h-1z" fill="#ff9811"/></g></svg>