<svg id="_x33_0" enable-background="new 0 0 64 64" height="512" viewBox="0 0 64 64" width="512" xmlns="http://www.w3.org/2000/svg"><g><g><g><path d="m10 12v18 4 6 6 16h-6v-52h6z" fill="#cf9e76"/></g><g><path d="m12 7v2c0 .55-.45 1-1 1h-1-6-1c-.55 0-1-.45-1-1v-2c0-2.76 2.24-5 5-5 1.38 0 2.63.56 3.54 1.46.9.91 1.46 2.16 1.46 3.54z" fill="#b27946"/></g><g><path d="m10 12h52v34h-52z" fill="#fcd770"/></g><g><path d="m31 24v6h-21v-18h21v6z" fill="#e6e9ed"/></g><g><path d="m25 20.44-3.09 2.12 1.18 3.44-3.09-2.12-3.09 2.12 1.18-3.44-3.09-2.12h3.82l1.18-3.44 1.18 3.44z" fill="#fcd770"/></g><g><path d="m62 43.56v.33c0 3.23-1.46 6.29-3.97 8.33l-4.65 3.78c-.51-2.55-2.82-4.47-5.38-4.9-.37-.07-.73-.1-1.1-.1h-.9c2.76 0 5-2.24 5-5s-2.24-5-5-5-5 2.24-5 5 2.24 5 5 5h-.9c-.37 0-.73.03-1.1.1-2.56.43-4.87 2.35-5.38 4.9l-4.65-3.78c-1.95-1.59-3.27-3.8-3.76-6.22-.14-.69-.21-1.4-.21-2.11v-.33c0-1.23.23-2.43.67-3.56.38-.99.92-1.91 1.61-2.74.43-.52.91-.98 1.44-1.38.52-.41 1.08-.75 1.68-1.03 1.19-.55 2.5-.85 3.85-.85 2.4 0 4.7.95 6.4 2.65l.35.35.35-.35c.85-.85 1.85-1.51 2.94-1.96s2.26-.69 3.46-.69c1.35 0 2.66.3 3.85.85 1.19.56 2.26 1.37 3.12 2.41 1.47 1.77 2.28 4 2.28 6.3z" fill="#ff826e"/></g><g><path d="m53.38 56-7.38 6-7.38-6c.51-2.55 2.82-4.47 5.38-4.9v1.9c0 1.1.9 2 2 2s2-.9 2-2v-1.9c2.56.43 4.87 2.35 5.38 4.9z" fill="#5cd6b3"/></g><g><path d="m48 51.1v1.9c0 1.1-.9 2-2 2s-2-.9-2-2v-1.9c.37-.07.73-.1 1.1-.1h.9.9c.37 0 .73.03 1.1.1z" fill="#f0d0b4"/></g><g><circle cx="46" cy="46" fill="#f0d0b4" r="5"/></g></g><g><path d="m16.897 22.956-1.916 5.584 5.019-3.451 5.019 3.451-1.916-5.584 5.116-3.519h-6.324l-1.895-5.516-1.895 5.516h-6.324zm2.636-1.518.467-1.359.467 1.359h1.314l-1.063.731.443 1.291-1.161-.798-1.161.798.443-1.291-1.063-.731z"/><path d="m11 11c1.103 0 2-.897 2-2v-2c0-3.309-2.691-6-6-6s-6 2.691-6 6v2c0 1.103.897 2 2 2v52h8v-16h18.434c.639 2.333 1.975 4.434 3.902 6l12.664 10.288 12.664-10.288c2.756-2.239 4.336-5.56 4.336-9.111v-.324-32.565zm19 2v16h-19v-16zm-27-6c0-2.206 1.794-4 4-4s4 1.794 4 4l.001 2h-8.001zm2 54v-50h4v50zm6-16v-4h18.317c-.204.835-.317 1.695-.317 2.564v.324c0 .374.027.743.062 1.111h-18.062zm28.766 10.646c.495-1.45 1.717-2.64 3.234-3.233v.587c0 1.654 1.346 3 3 3s3-1.346 3-3v-.586c1.517.592 2.74 1.783 3.234 3.233l-6.234 5.065zm5.234-3.637c.033-.001.065-.009.099-.009h1.803c.033 0 .065.008.099.009v.991c0 .552-.448 1-1 1s-1-.448-1-1v-.991zm1-2.009c-2.206 0-4-1.794-4-4s1.794-4 4-4 4 1.794 4 4-1.794 4-4 4zm15-6.111c0 2.946-1.312 5.701-3.598 7.559l-3.54 2.876c-.786-1.65-2.256-2.993-4.018-3.723 1.317-1.102 2.156-2.755 2.156-4.601 0-3.309-2.691-6-6-6s-6 2.691-6 6c0 1.846.839 3.499 2.155 4.601-1.762.73-3.232 2.073-4.018 3.723l-3.54-2.876c-2.285-1.858-3.597-4.613-3.597-7.559v-.324c0-2.064.729-4.076 2.051-5.663 1.536-1.844 3.794-2.902 6.194-2.902 2.154 0 4.18.839 5.703 2.362l1.052 1.052 1.052-1.052c1.523-1.523 3.549-2.362 5.703-2.362 2.4 0 4.658 1.058 6.194 2.902 1.322 1.586 2.051 3.598 2.051 5.662zm-.514-7.267c-1.918-2.302-4.735-3.622-7.731-3.622-2.521 0-4.9.921-6.755 2.603-1.854-1.682-4.233-2.603-6.755-2.603-2.996 0-5.813 1.32-7.731 3.621-.607.728-1.111 1.529-1.505 2.379h-19.009v-4h21v-2h-21v-2h21v-18h29v24.297c-.163-.231-.332-.457-.514-.675z"/><path d="m34 17h25v2h-25z"/><path d="m34 23h25v2h-25z"/><path d="m34 29h25v2h-25z"/></g></g></svg>