<?xml version="1.0"?>
<svg xmlns="http://www.w3.org/2000/svg" viewBox="0 0 64 64" width="512" height="512"><g id="Finance-Calculator"><path d="M3,21V57a4,4,0,0,0,4,4H47V21Z" style="fill:#5aaae7"/><path d="M47,7V21H3V7A4,4,0,0,1,7,3H43A4,4,0,0,1,47,7Z" style="fill:#3d9ae2"/><rect x="7" y="7" width="36" height="10" rx="1" style="fill:#ffde55"/><path d="M19,55V41h9l.04.02a12.961,12.961,0,0,0,0,13.96L28,55Z" style="fill:#ffb655"/><polygon points="13 34 16 34 19 34 19 41 7 41 7 34 10 34 13 34" style="fill:#ffb655"/><path d="M13,34H7V28a1,1,0,0,1,1-1H19v7H13Z" style="fill:#ffb655"/><path d="M7,41V54a1,1,0,0,0,1,1H19V41Z" style="fill:#ffa733"/><path d="M31,27V37.76a12.607,12.607,0,0,0-2.96,3.26L28,41H19V27Z" style="fill:#ffa733"/><path d="M43,28v7.63a12.986,12.986,0,0,0-12,2.13V27H42A1,1,0,0,1,43,28Z" style="fill:#ff9811"/><path d="M61,44v4a1,1,0,0,1-1,1H44a1,1,0,0,1-1-1V44a1,1,0,0,1,1-1H60A1,1,0,0,1,61,44Z" style="fill:#ffa733"/><path d="M61,56v4a1,1,0,0,1-1,1H44a1,1,0,0,1-1-1V56a1,1,0,0,1,1-1H60A1,1,0,0,1,61,56Z" style="fill:#ffa733"/><path d="M61,50v4a1,1,0,0,1-1,1H44a1,1,0,0,1-1-1V50a1,1,0,0,1,1-1H60A1,1,0,0,1,61,50Z" style="fill:#ff9811"/><path d="M61,38v4a1,1,0,0,1-1,1H44a1,1,0,0,1-1-1V38a1,1,0,0,1,1-1H60A1,1,0,0,1,61,38Z" style="fill:#ff9811"/><path d="M52,48c0,.34-.01.67-.04,1a13,13,0,0,1-8.89,11.34A12.763,12.763,0,0,1,39,61,12.991,12.991,0,0,1,28.04,41.02,12.607,12.607,0,0,1,31,37.76a12.986,12.986,0,0,1,12-2.13A12.582,12.582,0,0,1,45.92,37,12.985,12.985,0,0,1,52,48Z" style="fill:#ffd422"/><rect x="24" y="11" width="2" height="2" style="fill:#ebbf00"/><rect x="28" y="11" width="2" height="2" style="fill:#ebbf00"/><rect x="20" y="11" width="2" height="2" style="fill:#ebbf00"/><polygon points="16 33 14 33 14 31 12 31 12 33 10 33 10 35 12 35 12 37 14 37 14 35 16 35 16 33" style="fill:#cc7400"/><polygon points="27.828 32.586 26.414 31.172 25 32.586 23.586 31.172 22.172 32.586 23.586 34 22.172 35.414 23.586 36.828 25 35.414 26.414 36.828 27.828 35.414 26.414 34 27.828 32.586" style="fill:#cc7400"/><rect x="10" y="47" width="6" height="2" style="fill:#cc7400"/><rect x="53" y="55" width="2" height="3" style="fill:#ee8700"/><rect x="57" y="55" width="2" height="3" style="fill:#ee8700"/><rect x="53" y="49" width="2" height="3" style="fill:#ee8700"/><rect x="57" y="49" width="2" height="3" style="fill:#ee8700"/><rect x="53" y="43" width="2" height="3" style="fill:#ee8700"/><rect x="57" y="43" width="2" height="3" style="fill:#ee8700"/><rect x="53" y="37" width="2" height="3" style="fill:#ee8700"/><rect x="57" y="37" width="2" height="3" style="fill:#ee8700"/><path d="M41,47H37a1,1,0,0,1-1-1V44a1,1,0,0,1,1-1h4a1,1,0,0,1,1,1h2a3,3,0,0,0-3-3H40V39H38v2H37a3,3,0,0,0-3,3v2a3,3,0,0,0,3,3h4a1,1,0,0,1,1,1v2a1,1,0,0,1-1,1H37a1,1,0,0,1-1-1H34a3,3,0,0,0,3,3h1v2h2V55h1a3,3,0,0,0,3-3V50A3,3,0,0,0,41,47Z" style="fill:#ff6243"/></g></svg>
